# xmcd
#
# Track frame offsets:
#	150
#	6404
#	40188
#	61417
#	83327
#	104582
#	125859
#	144876
#	161326
#	182377
#	202224
#	211741
#	214258
#	248948
#	267990
#	296027
#
# Disc length: 4495 seconds
#
# Revision: 1
# Processed by: cddbd v1.5.1PL2 Copyright (c) Steve Scherf et al.
# Submitted via: EasyCDDAExtractor 9.0.0.1
#
DISCID=ed118d10
DTITLE=Whitesnake - Arrow Festival Lichtenvoorde 09-06-06 Source 1
DYEAR=2006
DGENRE=Hard Rock
TTITLE0=Intro
TTITLE1=Burn - Stormbringer - Burn
TTITLE2=Slide It In
TTITLE3=Love Ain't No Stranger
TTITLE4=Fool For Your Loving
TTITLE5=Is This Love
TTITLE6=Ready An' Willing
TTITLE7=Guitar Solos
TTITLE8=Crying In The Rain
TTITLE9=Drum Solo
TTITLE10=Crying In The Rain [Reprise]
TTITLE11=Band Introductions
TTITLE12=Ain't No Love In The Heart Of The City
TTITLE13=Gimme All Your Love
TTITLE14=Here I Go Again [With Adrian Van Den Berg]
TTITLE15=Still Of The Night
EXTD=
EXTT0=
EXTT1=
EXTT2=
EXTT3=
EXTT4=
EXTT5=
EXTT6=
EXTT7=
EXTT8=
EXTT9=
EXTT10=
EXTT11=
EXTT12=
EXTT13=
EXTT14=
EXTT15=
PLAYORDER=
